<?xml version="1.0" encoding="utf-8"?>
<!-- Generator: Adobe Illustrator 23.0.1, SVG Export Plug-In . SVG Version: 6.00 Build 0)  -->
<svg version="1.1" id="Layer_1" xmlns="http://www.w3.org/2000/svg" xmlns:xlink="http://www.w3.org/1999/xlink" x="0px" y="0px"
	 viewBox="0 0 1366 768" style="enable-background:new 0 0 1366 768;" xml:space="preserve">
<style type="text/css">
	.st0{fill:url(#SVGID_1_);}
</style>
<linearGradient id="SVGID_1_" gradientUnits="userSpaceOnUse" x1="0" y1="388.4228" x2="1366" y2="388.4228">
	<stop  offset="0" style="stop-color:#8D86DA"/>
	<stop  offset="1" style="stop-color:#48C8FB"/>
</linearGradient>
<path class="st0" d="M1276.9,26.2c-46.6-14.2-94.4-18.9-143.1-14.9c-41.1,3.4-80.8,12.9-119.3,27.5c-46.4,17.6-92.4,36.1-138.8,53.7
	c-63.4,24.1-128.5,38.9-196.9,37.4c-36.2-0.8-71.7-6-106.2-16.6C519.8,97,468.5,76.3,418.6,52.6C365.8,27.5,310.3,13.8,252.3,9.9
	c-31.6-2.2-63.2-0.8-94.7,3.1C102.4,19.8,49.8,34.7,0,57.7V768h1366V72.7C1340,52,1310.4,36.3,1276.9,26.2z"/>
</svg>
